<mxfile host="Electron" modified="2024-05-11T09:30:03.002Z" agent="Mozilla/5.0 (Windows NT 10.0; Win64; x64) AppleWebKit/537.36 (KHTML, like Gecko) draw.io/24.2.5 Chrome/120.0.6099.109 Electron/28.1.0 Safari/537.36" etag="J0lHTtgl0V035TyCm6Jf" version="24.2.5" type="device">
  <diagram name="Pagina-1" id="Nhb78cBg7jOc3badx3x8">
    <mxGraphModel dx="1410" dy="345" grid="1" gridSize="10" guides="1" tooltips="1" connect="1" arrows="1" fold="1" page="1" pageScale="1" pageWidth="827" pageHeight="1169" math="0" shadow="0">
      <root>
        <mxCell id="0" />
        <mxCell id="1" parent="0" />
        <mxCell id="fgFZro1URuCt8QVFdOu4-1" value="&lt;font style=&quot;font-size: 8px;&quot;&gt;Punteggio&lt;/font&gt;" style="text;html=1;align=center;verticalAlign=middle;whiteSpace=wrap;rounded=1;strokeColor=none;" vertex="1" parent="1">
          <mxGeometry x="-628.56" y="233.92000000000002" width="49" height="23" as="geometry" />
        </mxCell>
        <mxCell id="fgFZro1URuCt8QVFdOu4-2" value="" style="shape=flexArrow;endArrow=classic;html=1;rounded=0;fillColor=#000000;endWidth=8.380952380952381;endSize=2.5142857142857142;" edge="1" parent="1">
          <mxGeometry width="50" height="50" relative="1" as="geometry">
            <mxPoint x="-551.6800000000001" y="254.92000000000002" as="sourcePoint" />
            <mxPoint x="-551.6800000000001" y="234.92000000000002" as="targetPoint" />
          </mxGeometry>
        </mxCell>
        <mxCell id="fgFZro1URuCt8QVFdOu4-3" value="Avatar&lt;div&gt;corrente&lt;/div&gt;" style="whiteSpace=wrap;html=1;align=center;" vertex="1" parent="1">
          <mxGeometry x="-540" y="291.99" width="60" height="32.5" as="geometry" />
        </mxCell>
        <mxCell id="fgFZro1URuCt8QVFdOu4-4" value="" style="endArrow=none;html=1;rounded=0;" edge="1" parent="1">
          <mxGeometry width="50" height="50" relative="1" as="geometry">
            <mxPoint x="-591.6800000000001" y="254.92000000000002" as="sourcePoint" />
            <mxPoint x="-511.68" y="254.92000000000002" as="targetPoint" />
          </mxGeometry>
        </mxCell>
        <mxCell id="fgFZro1URuCt8QVFdOu4-5" style="edgeStyle=orthogonalEdgeStyle;rounded=0;orthogonalLoop=1;jettySize=auto;html=1;exitX=0;exitY=0.25;exitDx=0;exitDy=0;endArrow=oval;endFill=0;" edge="1" parent="1">
          <mxGeometry relative="1" as="geometry">
            <mxPoint x="-601.6800000000001" y="214.92000000000002" as="targetPoint" />
            <mxPoint x="-581.6800000000001" y="214.69" as="sourcePoint" />
            <Array as="points">
              <mxPoint x="-591.6800000000001" y="214.92000000000002" />
            </Array>
          </mxGeometry>
        </mxCell>
        <mxCell id="fgFZro1URuCt8QVFdOu4-6" value="&lt;font style=&quot;font-size: 8px;&quot;&gt;Nickname&lt;/font&gt;" style="text;html=1;align=center;verticalAlign=middle;whiteSpace=wrap;rounded=1;strokeColor=none;" vertex="1" parent="1">
          <mxGeometry x="-641.6800000000001" y="200.92000000000002" width="30" height="23.5" as="geometry" />
        </mxCell>
        <mxCell id="fgFZro1URuCt8QVFdOu4-7" value="" style="endArrow=none;html=1;rounded=0;" edge="1" parent="1">
          <mxGeometry width="50" height="50" relative="1" as="geometry">
            <mxPoint x="-591.6800000000001" y="291.74" as="sourcePoint" />
            <mxPoint x="-591.6800000000001" y="254.44" as="targetPoint" />
          </mxGeometry>
        </mxCell>
        <mxCell id="fgFZro1URuCt8QVFdOu4-8" value="" style="endArrow=none;html=1;rounded=0;exitX=0.478;exitY=0.006;exitDx=0;exitDy=0;exitPerimeter=0;" edge="1" parent="1" source="fgFZro1URuCt8QVFdOu4-3">
          <mxGeometry width="50" height="50" relative="1" as="geometry">
            <mxPoint x="-561.6800000000001" y="304.92" as="sourcePoint" />
            <mxPoint x="-511.68" y="254.44" as="targetPoint" />
          </mxGeometry>
        </mxCell>
        <mxCell id="fgFZro1URuCt8QVFdOu4-12" style="edgeStyle=orthogonalEdgeStyle;rounded=0;orthogonalLoop=1;jettySize=auto;html=1;exitX=0.053;exitY=1.011;exitDx=0;exitDy=0;endArrow=oval;endFill=0;exitPerimeter=0;" edge="1" parent="1">
          <mxGeometry relative="1" as="geometry">
            <mxPoint x="-578.56" y="247.59000000000003" as="targetPoint" />
            <mxPoint x="-568.5" y="234.92000000000002" as="sourcePoint" />
            <Array as="points">
              <mxPoint x="-568.56" y="247.59000000000003" />
            </Array>
          </mxGeometry>
        </mxCell>
        <mxCell id="fgFZro1URuCt8QVFdOu4-13" value="" style="curved=1;endArrow=oval;html=1;rounded=0;endFill=1;entryX=0.827;entryY=1.079;entryDx=0;entryDy=0;entryPerimeter=0;" edge="1" parent="1">
          <mxGeometry width="50" height="50" relative="1" as="geometry">
            <mxPoint x="-592.56" y="219.92000000000002" as="sourcePoint" />
            <mxPoint x="-563.56" y="199.974" as="targetPoint" />
            <Array as="points">
              <mxPoint x="-596.84" y="197.92000000000002" />
            </Array>
          </mxGeometry>
        </mxCell>
        <mxCell id="fgFZro1URuCt8QVFdOu4-14" value="&lt;font style=&quot;font-size: 8px;&quot;&gt;Ora&lt;/font&gt;" style="text;html=1;align=center;verticalAlign=middle;whiteSpace=wrap;rounded=1;strokeColor=none;glass=0;" vertex="1" parent="1">
          <mxGeometry x="-644.6699999999998" y="173.99" width="50" height="15" as="geometry" />
        </mxCell>
        <mxCell id="fgFZro1URuCt8QVFdOu4-15" value="&lt;font style=&quot;font-size: 8px;&quot;&gt;Data&lt;/font&gt;" style="text;html=1;align=center;verticalAlign=middle;whiteSpace=wrap;rounded=1;strokeColor=none;glass=0;" vertex="1" parent="1">
          <mxGeometry x="-646.6699999999998" y="160" width="50" height="15" as="geometry" />
        </mxCell>
        <mxCell id="fgFZro1URuCt8QVFdOu4-16" style="edgeStyle=orthogonalEdgeStyle;rounded=0;orthogonalLoop=1;jettySize=auto;html=1;exitX=0;exitY=0;exitDx=0;exitDy=0;endArrow=oval;endFill=0;" edge="1" parent="1">
          <mxGeometry relative="1" as="geometry">
            <mxPoint x="-606.6699999999998" y="171.25" as="targetPoint" />
            <mxPoint x="-587.29" y="171.25" as="sourcePoint" />
            <Array as="points" />
          </mxGeometry>
        </mxCell>
        <mxCell id="fgFZro1URuCt8QVFdOu4-17" style="edgeStyle=orthogonalEdgeStyle;rounded=0;orthogonalLoop=1;jettySize=auto;html=1;endArrow=oval;endFill=0;" edge="1" parent="1">
          <mxGeometry relative="1" as="geometry">
            <mxPoint x="-606.6699999999998" y="184.37" as="targetPoint" />
            <mxPoint x="-586.6699999999998" y="184.37" as="sourcePoint" />
            <Array as="points" />
          </mxGeometry>
        </mxCell>
        <mxCell id="fgFZro1URuCt8QVFdOu4-18" value="&lt;p style=&quot;line-height: 110%;&quot;&gt;&lt;font style=&quot;font-size: 7px;&quot;&gt;DataCrea&lt;/font&gt;&lt;/p&gt;" style="ellipse;whiteSpace=wrap;html=1;" vertex="1" parent="1">
          <mxGeometry x="-594.6699999999998" y="166.87" width="36.12" height="20" as="geometry" />
        </mxCell>
        <mxCell id="fgFZro1URuCt8QVFdOu4-19" value="" style="endArrow=none;html=1;rounded=0;" edge="1" parent="1">
          <mxGeometry width="50" height="50" relative="1" as="geometry">
            <mxPoint x="-576.74" y="206.87" as="sourcePoint" />
            <mxPoint x="-576.74" y="186.87" as="targetPoint" />
          </mxGeometry>
        </mxCell>
        <mxCell id="fgFZro1URuCt8QVFdOu4-20" value="Avatar" style="whiteSpace=wrap;html=1;align=center;" vertex="1" parent="1">
          <mxGeometry x="-581.6800000000001" y="204.92000000000002" width="60" height="30" as="geometry" />
        </mxCell>
        <mxCell id="fgFZro1URuCt8QVFdOu4-23" value="&lt;font style=&quot;font-size: 8px;&quot;&gt;Ora&lt;/font&gt;" style="text;html=1;align=center;verticalAlign=middle;whiteSpace=wrap;rounded=1;strokeColor=none;glass=0;" vertex="1" parent="1">
          <mxGeometry x="-635.1999999999998" y="348.87" width="50" height="15" as="geometry" />
        </mxCell>
        <mxCell id="fgFZro1URuCt8QVFdOu4-24" value="&lt;font style=&quot;font-size: 8px;&quot;&gt;Data&lt;/font&gt;" style="text;html=1;align=center;verticalAlign=middle;whiteSpace=wrap;rounded=1;strokeColor=none;glass=0;" vertex="1" parent="1">
          <mxGeometry x="-635.1999999999998" y="336.42999999999995" width="50" height="15" as="geometry" />
        </mxCell>
        <mxCell id="fgFZro1URuCt8QVFdOu4-25" style="edgeStyle=orthogonalEdgeStyle;rounded=0;orthogonalLoop=1;jettySize=auto;html=1;exitX=0;exitY=0;exitDx=0;exitDy=0;endArrow=oval;endFill=0;" edge="1" parent="1">
          <mxGeometry relative="1" as="geometry">
            <mxPoint x="-596.6699999999998" y="344.74" as="targetPoint" />
            <mxPoint x="-577.29" y="344.74" as="sourcePoint" />
            <Array as="points" />
          </mxGeometry>
        </mxCell>
        <mxCell id="fgFZro1URuCt8QVFdOu4-26" style="edgeStyle=orthogonalEdgeStyle;rounded=0;orthogonalLoop=1;jettySize=auto;html=1;endArrow=oval;endFill=0;" edge="1" parent="1">
          <mxGeometry relative="1" as="geometry">
            <mxPoint x="-596.6699999999998" y="358.74" as="targetPoint" />
            <mxPoint x="-576.6699999999998" y="358.74" as="sourcePoint" />
            <Array as="points" />
          </mxGeometry>
        </mxCell>
        <mxCell id="fgFZro1URuCt8QVFdOu4-27" value="" style="endArrow=none;html=1;rounded=0;" edge="1" parent="1">
          <mxGeometry width="50" height="50" relative="1" as="geometry">
            <mxPoint x="-566.8199999999999" y="353.18000000000006" as="sourcePoint" />
            <mxPoint x="-566.8199999999999" y="315.88" as="targetPoint" />
          </mxGeometry>
        </mxCell>
        <mxCell id="fgFZro1URuCt8QVFdOu4-28" value="Avatar&lt;div&gt;passato&lt;/div&gt;" style="whiteSpace=wrap;html=1;align=center;" vertex="1" parent="1">
          <mxGeometry x="-621.25" y="291.99" width="60" height="33" as="geometry" />
        </mxCell>
        <mxCell id="fgFZro1URuCt8QVFdOu4-29" value="&lt;p style=&quot;line-height: 110%;&quot;&gt;&lt;font style=&quot;font-size: 7px;&quot;&gt;DataFine&lt;/font&gt;&lt;/p&gt;" style="ellipse;whiteSpace=wrap;html=1;" vertex="1" parent="1">
          <mxGeometry x="-585.2" y="339.41999999999996" width="36.87" height="22.63" as="geometry" />
        </mxCell>
      </root>
    </mxGraphModel>
  </diagram>
</mxfile>
